#N canvas 865 256 962 621 16;
#X obj 127 135 vsl 50 128 0 127 0 0 my_vsl my_vsl-rcv empty 0 -9 0
10 #fcfcfc #000000 #000000 0 1;
#N canvas 0 50 450 300 stage-stuff 0;
#X obj 20 50 stage/tools/stage_listener my_vsl my_vsl-rcv;
#X obj 20 100 stage/tools/stage_listener my_tgl my_tgl-rcv;
#X obj 20 150 stage/tools/stage_bng_listener my_bng my_bng-rcv 50;
#X obj 20 200 stage/tools/stage_listener my_vradio my_vradio-rcv;
#X restore 712 427 pd stage-stuff;
#X obj 274 143 tgl 50 0 my_tgl my_tgl-rcv empty 17 7 0 10 #fcfcfc #000000
#000000 0 1;
#X obj 274 213 bng 50 250 50 0 my_bng my_bng-rcv empty 17 7 0 10 #fcfcfc
#000000 #000000;
#X obj 184 173 vradio 50 1 0 4 my_vradio my_vradio-rcv empty 0 -8 0
10 #fcfcfc #000000 #000000 0;
#X obj 519 101 cnv 15 300 300 empty empty empty 20 12 0 14 #ebebeb
#404040 0;
#N canvas 737 533 450 300 osc 0;
#X obj 1 127 cnv 1 48 2 empty \$0-cnv-rcv empty 20 12 0 14 #ffffff
#404040 0;
#X obj 187 5 r my_vsl;
#X obj 187 30 t f f;
#X obj 235 89 * -1;
#X obj 203 121 pack f f;
#X obj 205 215 s \$0-cnv-rcv;
#X msg 186 148 pos 1 \$2 \, vis_size 48 \$1;
#X obj 235 64 - 127;
#X msg 267 182 size 1;
#X obj 166 79 + 2;
#X connect 1 0 2 0;
#X connect 2 0 9 0;
#X connect 2 1 7 0;
#X connect 3 0 4 1;
#X connect 4 0 6 0;
#X connect 6 0 5 0;
#X connect 7 0 3 0;
#X connect 8 0 5 0;
#X connect 9 0 4 0;
#X coords 0 -1 1 1 50 130 2 0 0;
#X restore 547 133 pd osc;
#N canvas 0 0 1920 1021 osc 0;
#X obj 1 1 cnv 15 48 198 empty empty empty 20 12 0 14 #ffffff #404040
0;
#X obj 0 49 cnv 1 48 1 empty empty empty 20 12 0 14 #ebebeb #404040
0;
#X obj 0 99 cnv 1 48 1 empty empty empty 20 12 0 14 #ebebeb #404040
0;
#X obj 0 149 cnv 1 48 1 empty empty empty 20 12 0 14 #ebebeb #404040
0;
#X obj 10 22 cnv 20 1 1 empty label_1 0 0 5 0 48 #ebebeb #000000 0
;
#X obj 658 226 s label_1;
#X obj 10 72 cnv 20 1 1 empty label_2 1 0 5 0 48 #ebebeb #ebebeb 0
;
#X obj 10 122 cnv 20 1 1 empty label_3 2 0 5 0 48 #ebebeb #ebebeb 0
;
#X obj 10 172 cnv 20 1 1 empty label_4 3 0 5 0 48 #ebebeb #ebebeb 0
;
#X msg 764 136 color #ebebeb #dddddd #000000;
#X msg 774 236 color #ebebeb #dddddd #000000;
#X msg 764 386 color #ebebeb #dddddd #000000;
#X msg 774 486 color #ebebeb #dddddd #000000;
#X obj 668 326 s label_2;
#X obj 658 476 s label_3;
#X obj 668 576 s label_4;
#X obj 1207 128 r my_vradio;
#X obj 1207 157 select 0 1 2 3;
#X msg 770 182 color #ebebeb #dddddd #ebebeb;
#X msg 780 282 color #ebebeb #dddddd #ebebeb;
#X msg 770 432 color #ebebeb #dddddd #ebebeb;
#X msg 780 532 color #ebebeb #dddddd #ebebeb;
#X connect 9 0 5 0;
#X connect 10 0 13 0;
#X connect 11 0 14 0;
#X connect 12 0 15 0;
#X connect 16 0 17 0;
#X connect 17 0 9 0;
#X connect 17 0 19 0;
#X connect 17 0 21 0;
#X connect 17 0 20 0;
#X connect 17 1 10 0;
#X connect 17 1 20 0;
#X connect 17 1 21 0;
#X connect 17 1 18 0;
#X connect 17 2 11 0;
#X connect 17 2 19 0;
#X connect 17 2 21 0;
#X connect 17 2 18 0;
#X connect 17 3 12 0;
#X connect 17 3 18 0;
#X connect 17 3 20 0;
#X connect 17 3 19 0;
#X connect 18 0 5 0;
#X connect 19 0 13 0;
#X connect 20 0 14 0;
#X connect 21 0 15 0;
#X coords 0 -1 1 1 50 200 2 0 0;
#X restore 604 173 pd osc;
#X text 108 103 PUREDATA;
#X text 530 106 OPEN STAGE CONTROL;
#X text 39 5 The rendering of widgets is slightly different in Pd and
in O.S.C., f 68;
#X text 37 36 If no background color is defined \, O.S.C. defaults
with a #ebebeb background color \, in order to display white \, which
is the default color of pd widgets, f 76;
#X text 349 462 -->;
#X text 154 489 slider cursor color;
#X text 349 488 -->;
#N canvas 0 0 1920 1021 tgl 0;
#X obj 214 68 r my_tgl;
#X obj 214 97 select 0 1;
#X obj 188 222 s tgl_target;
#X msg 198 145 color #ffffff #ffffff #ffffff;
#X msg 169 176 color #ffffff #ffffff #000000;
#X obj 100 100 tgl 50 0 empty tgl_target X 8 26 0 60 #ffffff #ffffff
#ffffff 0 1;
#X connect 0 0 1 0;
#X connect 1 0 3 0;
#X connect 1 1 4 0;
#X connect 3 0 2 0;
#X connect 4 0 2 0;
#X coords 0 -1 1 1 50 50 2 100 100;
#X restore 684 138 pd tgl;
#N canvas 0 0 450 300 bng 0;
#X msg 304 96 color #ffffff #ffffff #000000;
#X obj 218 222 s bng_target;
#X msg 228 145 color #ffffff #ffffff #f0f0f0;
#X obj 235 23 r my_bng;
#X obj 231 65 t b b;
#X obj 229 105 delay 100;
#X obj 100 100 tgl 50 0 empty bng_target â— 8 20 0 60 #ffffff #ffffff
#f0f0f0 0 1;
#X connect 0 0 1 0;
#X connect 2 0 1 0;
#X connect 3 0 4 0;
#X connect 4 0 5 0;
#X connect 4 1 0 0;
#X connect 5 0 2 0;
#X coords 0 -1 1 1 50 50 2 100 100;
#X restore 684 213 pd bng;
#X text 53 531 In O.S.C. \, h/vradios (selecteurs) are rendered with
numbers;
#X text 52 424 In O.S.C. \, sliders are rendered as faders;
#X text 419 227 >>>>>>>;
#X text 390 462 fader cursor color, f 20;
#X text 388 489 fader contourscolor;
#X text 116 459 slider background color;
#X obj 709 463 stage;
#X coords 0 -1 1 1 300 300 1 100 100;
