#N canvas 874 2 1001 927 16;
#X obj 203 218 bng 100 250 50 0 reset reset-rcv RESET 17 30 0 20 #fcfcfc
#000000 #000000;
#X obj 201 323 mob/lcd my_lcd my_lcd-rcv 2;
#A saved -z_offset 0;
#A saved -back_alpha 1;
#A saved -front_alpha 1;
#A saved -front_color 0 0 0;
#A saved -back_color 255 255 212;
#A saved -title ;
#A saved -name my_lcd;
#A saved -size 500 376;
#X obj 200 714 route 0 1 2;
#N canvas 0 0 450 300 stage-stuff 0;
#X obj 20 50 stage/tools/stage_bng_listener reset reset-rcv 250;
#X restore 684 24 pd stage-stuff;
#X msg 78 758 clear;
#X msg 238 750 moveto \$1 \$2;
#X msg 257 778 lineto \$1 \$2;
#X obj 181 169 r drawing_commands;
#X obj 394 877 s drawing_commands;
#X obj 69 693 r reset;
#X obj 468 714 loadbang;
#X text 309 203 mob/lcd is a special canvas with drawing features,
f 37;
#X obj 699 264 pdcontrol;
#X msg 699 238 browse https://github.com/jyg/mob;
#X text 436 242 more info : click here ->;
#X text 697 774 drawing rectangles \, circles;
#X msg 775 567 color 1 0 0;
#X msg 772 492 color 1 1 0;
#X msg 789 433 color 0 0 1;
#X text 617 735 todo : adjust drawing color on client side;
#X msg 549 844 paintrect 0.4 0.4 0.5 0.5 0 1 1 1;
#X msg 495 818 paintrect 0.1 0.1 0.4 0.4 1 0 0.1 1;
#X msg 711 305 frameoval 0.1 0.1 0.4 0.3 1 0 0.1 1;
#X msg 460 744 penwidth 6;
#X msg 729 357 paintoval 0.2 0.6 0.4 0.95 0.2 0.7 1 1;
#X text 304 267 inlet : drawing commands;
#X text 305 288 outlet : touch events (<event> <x> <y>);
#X obj 752 59 stage;
#X connect 1 0 2 0;
#X connect 2 1 5 0;
#X connect 2 2 6 0;
#X connect 4 0 8 0;
#X connect 5 0 8 0;
#X connect 6 0 8 0;
#X connect 7 0 1 0;
#X connect 9 0 4 0;
#X connect 10 0 23 0;
#X connect 13 0 12 0;
#X connect 16 0 8 0;
#X connect 17 0 8 0;
#X connect 18 0 8 0;
#X connect 20 0 8 0;
#X connect 21 0 8 0;
#X connect 22 0 8 0;
#X connect 23 0 8 0;
#X connect 24 0 8 0;
#X coords 0 -1 1 1 500 500 1 200 200;
