#N struct struct_lineto float lx float ty float rx float by float width
float color;
#N canvas 803 37 1001 927 16;
#X obj 203 218 bng 100 250 50 0 reset reset-rcv RESET 17 30 0 20 #fcfcfc
#000000 #000000;
#X obj 200 324 mob/lcd my_lcd my_lcd-rcv 3;
#A saved -z_offset 0;
#A saved -back_alpha 1;
#A saved -front_alpha 1;
#A saved -front_color 0 0 0;
#A saved -back_color 255 255 212;
#A saved -title ;
#A saved -name my_lcd;
#A saved -size 500 376;
#X obj 200 714 route 0 1 2;
#N canvas 0 0 450 300 stage-stuff 0;
#X obj 20 50 stage/tools/stage_bng_listener reset reset-rcv 50;
#X restore 684 24 pd stage-stuff;
#X msg 78 758 clear;
#X msg 238 750 moveto \$1 \$2;
#X msg 257 778 lineto \$1 \$2;
#X obj 49 151 r drawing_commands;
#X obj 238 828 s drawing_commands;
#X obj 69 693 r reset;
#X msg 458 744 penwidth 3;
#X obj 468 714 loadbang;
#X text 34 17 mob/lcd is a special canvas with drawing features;
#X obj 291 76 pdcontrol;
#X msg 291 50 browse https://github.com/jyg/mob;
#X text 32 49 more info : click here ->;
#X text 643 741 todo : adjust drawing color;
#X text 663 783 drawing rectangles \, circles;
#X obj 683 56 stage/connect;
#X connect 1 0 2 0;
#X connect 2 1 5 0;
#X connect 2 2 6 0;
#X connect 4 0 8 0;
#X connect 5 0 8 0;
#X connect 6 0 8 0;
#X connect 7 0 1 0;
#X connect 9 0 4 0;
#X connect 10 0 8 0;
#X connect 11 0 10 0;
#X connect 14 0 13 0;
#X coords 0 -1 1 1 500 500 1 200 200;
