#N canvas 134 111 407 305 12;
#X obj 95 116 namecanvas \$0-this;
#N canvas 0 0 1920 1021 guts 1;
#N canvas 0 0 740 891 new-pd-color-sheme_to_rvba 0;
#X obj 36 21 inlet;
#X obj 60 101 list fromsymbol;
#X obj 60 148 list split 1;
#X obj 104 186 list split 2;
#X obj 224 259 list split 2;
#X msg 121 59 symbol #ff0000;
#N canvas 0 0 450 300 0x00_to_f 0;
#X obj 65 27 inlet;
#X obj 202 293 outlet;
#X obj 201 66 unpack f f;
#X obj 200 113 moses 97;
#X obj 200 138 - 48;
#X obj 255 140 - 87;
#X obj 201 184 t f;
#X obj 290 113 moses 97;
#X obj 290 138 - 48;
#X obj 345 140 - 87;
#X obj 291 184 t f;
#X obj 201 209 * 16;
#X obj 201 234 +;
#X connect 0 0 2 0;
#X connect 2 0 3 0;
#X connect 2 1 7 0;
#X connect 3 0 4 0;
#X connect 3 1 5 0;
#X connect 4 0 6 0;
#X connect 5 0 6 0;
#X connect 6 0 11 0;
#X connect 7 0 8 0;
#X connect 7 1 9 0;
#X connect 8 0 10 0;
#X connect 9 0 10 0;
#X connect 10 0 12 1;
#X connect 11 0 12 0;
#X connect 12 0 1 0;
#X restore 106 304 pd 0x00_to_f;
#N canvas 0 0 450 300 0x00_to_f 0;
#X obj 65 27 inlet;
#X obj 201 66 unpack f f;
#X obj 200 113 moses 97;
#X obj 200 138 - 48;
#X obj 255 140 - 87;
#X obj 201 184 t f;
#X obj 290 113 moses 97;
#X obj 290 138 - 48;
#X obj 345 140 - 87;
#X obj 291 184 t f;
#X obj 201 209 * 16;
#X obj 201 234 +;
#X obj 201 259 outlet;
#X connect 0 0 1 0;
#X connect 1 0 2 0;
#X connect 1 1 6 0;
#X connect 2 0 3 0;
#X connect 2 1 4 0;
#X connect 3 0 5 0;
#X connect 4 0 5 0;
#X connect 5 0 10 0;
#X connect 6 0 7 0;
#X connect 6 1 8 0;
#X connect 7 0 9 0;
#X connect 8 0 9 0;
#X connect 9 0 11 1;
#X connect 10 0 11 0;
#X connect 11 0 12 0;
#X restore 216 304 pd 0x00_to_f;
#N canvas 0 0 450 300 0x00_to_f 0;
#X obj 65 27 inlet;
#X obj 90 250 outlet;
#X obj 201 66 unpack f f;
#X obj 200 113 moses 97;
#X obj 200 138 - 48;
#X obj 255 140 - 87;
#X obj 201 184 t f;
#X obj 290 113 moses 97;
#X obj 290 138 - 48;
#X obj 345 140 - 87;
#X obj 291 184 t f;
#X obj 201 209 * 16;
#X obj 201 234 +;
#X connect 0 0 2 0;
#X connect 2 0 3 0;
#X connect 2 1 7 0;
#X connect 3 0 4 0;
#X connect 3 1 5 0;
#X connect 4 0 6 0;
#X connect 5 0 6 0;
#X connect 6 0 11 0;
#X connect 7 0 8 0;
#X connect 7 1 9 0;
#X connect 8 0 10 0;
#X connect 9 0 10 0;
#X connect 10 0 12 1;
#X connect 11 0 12 0;
#X connect 12 0 1 0;
#X restore 330 306 pd 0x00_to_f;
#X text 391 134 pd 0.52;
#X obj 283 368 s \$0-b-rcv;
#X obj 83 368 s \$0-r-rcv;
#X obj 181 363 s \$0-g-rcv;
#X connect 0 0 1 0;
#X connect 1 0 2 0;
#X connect 2 1 3 0;
#X connect 3 0 6 0;
#X connect 3 1 4 0;
#X connect 4 0 7 0;
#X connect 4 1 8 0;
#X connect 5 0 1 0;
#X connect 6 0 11 0;
#X connect 7 0 12 0;
#X connect 8 0 10 0;
#X restore 630 905 pd new-pd-color-sheme_to_rvba;
#X obj 667 627 savestate;
#X obj 689 470 symbol;
#X obj 732 439 r \$0-color;
#X obj 665 773 list trim;
#X msg 665 503 -color \$1;
#X obj 636 859 symbol;
#X obj 852 273 v \$0-linewidth;
#X msg 852 298 -linewidth \$1;
#X obj 855 953 s \$0-linewidth-rcv;
#X obj 883 336 v \$0-style;
#X msg 883 361 -style \$1;
#X obj 843 827 s \$0-style-rcv;
#X obj 917 13 r \$0-ok;
#X obj 914 76 s \$0-this;
#X msg 917 38 vis 0;
#X obj 679 189 s \$1;
#X obj 802 110 r \$0-color;
#N canvas 0 0 740 891 new-pd-color-sheme_to_999 0;
#X obj 36 21 inlet;
#X obj 60 101 list fromsymbol;
#X obj 60 148 list split 1;
#X obj 104 186 list split 2;
#X obj 224 259 list split 2;
#X msg 121 59 symbol #ff0000;
#N canvas 0 0 450 300 0x00_to_f 0;
#X obj 65 27 inlet;
#X obj 199 354 outlet;
#X obj 201 66 unpack f f;
#X obj 200 113 moses 97;
#X obj 200 138 - 48;
#X obj 255 140 - 87;
#X obj 201 184 t f;
#X obj 290 113 moses 97;
#X obj 290 138 - 48;
#X obj 345 140 - 87;
#X obj 291 184 t f;
#X obj 201 209 * 16;
#X obj 201 234 +;
#X obj 201 264 / 255;
#X obj 201 294 * 9;
#X obj 200 324 int;
#X connect 0 0 2 0;
#X connect 2 0 3 0;
#X connect 2 1 7 0;
#X connect 3 0 4 0;
#X connect 3 1 5 0;
#X connect 4 0 6 0;
#X connect 5 0 6 0;
#X connect 6 0 11 0;
#X connect 7 0 8 0;
#X connect 7 1 9 0;
#X connect 8 0 10 0;
#X connect 9 0 10 0;
#X connect 10 0 12 1;
#X connect 11 0 12 0;
#X connect 12 0 13 0;
#X connect 13 0 14 0;
#X connect 14 0 15 0;
#X connect 15 0 1 0;
#X restore 106 304 pd 0x00_to_f;
#N canvas 0 0 450 386 0x00_to_f 0;
#X obj 65 27 inlet;
#X obj 201 66 unpack f f;
#X obj 200 113 moses 97;
#X obj 200 138 - 48;
#X obj 255 140 - 87;
#X obj 201 184 t f;
#X obj 290 113 moses 97;
#X obj 290 138 - 48;
#X obj 345 140 - 87;
#X obj 291 184 t f;
#X obj 201 209 * 16;
#X obj 201 234 +;
#X obj 200 368 outlet;
#X obj 201 265 / 255;
#X obj 200 294 * 9;
#X obj 200 331 int;
#X connect 0 0 1 0;
#X connect 1 0 2 0;
#X connect 1 1 6 0;
#X connect 2 0 3 0;
#X connect 2 1 4 0;
#X connect 3 0 5 0;
#X connect 4 0 5 0;
#X connect 5 0 10 0;
#X connect 6 0 7 0;
#X connect 6 1 8 0;
#X connect 7 0 9 0;
#X connect 8 0 9 0;
#X connect 9 0 11 1;
#X connect 10 0 11 0;
#X connect 11 0 13 0;
#X connect 13 0 14 0;
#X connect 14 0 15 0;
#X connect 15 0 12 0;
#X restore 216 304 pd 0x00_to_f;
#N canvas 0 0 534 482 0x00_to_f 0;
#X obj 65 27 inlet;
#X obj 182 414 outlet;
#X obj 201 66 unpack f f;
#X obj 200 113 moses 97;
#X obj 200 138 - 48;
#X obj 255 140 - 87;
#X obj 201 184 t f;
#X obj 290 113 moses 97;
#X obj 290 138 - 48;
#X obj 345 140 - 87;
#X obj 291 184 t f;
#X obj 201 209 * 16;
#X obj 201 234 +;
#X obj 194 268 / 255;
#X obj 180 334 * 9;
#X obj 186 377 int;
#X connect 0 0 2 0;
#X connect 2 0 3 0;
#X connect 2 1 7 0;
#X connect 3 0 4 0;
#X connect 3 1 5 0;
#X connect 4 0 6 0;
#X connect 5 0 6 0;
#X connect 6 0 11 0;
#X connect 7 0 8 0;
#X connect 7 1 9 0;
#X connect 8 0 10 0;
#X connect 9 0 10 0;
#X connect 10 0 12 1;
#X connect 11 0 12 0;
#X connect 12 0 13 0;
#X connect 13 0 14 0;
#X connect 14 0 15 0;
#X connect 15 0 1 0;
#X restore 315 331 pd 0x00_to_f;
#X text 391 134 pd 0.52;
#X obj 198 334 * 10;
#X obj 94 336 * 100;
#X obj 198 359 +;
#X obj 94 361 +;
#X obj 94 386 outlet;
#X connect 0 0 1 0;
#X connect 1 0 2 0;
#X connect 2 1 3 0;
#X connect 3 0 6 0;
#X connect 3 1 4 0;
#X connect 4 0 7 0;
#X connect 4 1 8 0;
#X connect 5 0 1 0;
#X connect 6 0 11 0;
#X connect 7 0 10 0;
#X connect 8 0 12 1;
#X connect 10 0 12 0;
#X connect 11 0 13 0;
#X connect 12 0 13 1;
#X connect 13 0 14 0;
#X restore 800 140 pd new-pd-color-sheme_to_999;
#X msg 800 165 color \$1;
#X obj 662 106 r \$0-linewidth;
#X msg 667 132 width \$1;
#X obj 544 99 r \$0-style;
#X msg 549 125 style \$1;
#X obj 1010 107 r \$0-editable;
#X msg 1010 132 edit \$1;
#X obj 1019 854 s \$0-editable-rcv;
#X obj 999 272 v \$0-editable;
#X msg 999 297 -editable \$1;
#X obj 100 100 cnv 15 400 210 empty empty ARRAY\\\ STYLE\\\ \$1 20
40 0 30 #e0e0e0 #404040 0;
#X obj 389 267 bng 40 250 50 0 \$0-ok empty OK 5 20 0 20 #c4fcc4 #000000
#000000;
#X obj 186 186 vradio 15 1 0 3 \$0-style \$0-style-rcv style -40 22
0 10 #fcfcfc #000000 #000000 0;
#X text 211 199 polygon;
#X text 210 217 Bezier curve;
#X floatatom 186 244 5 1 40 0 lineWidth \$0-linewidth-rcv \$0-linewidth
0;
#X text 112 268 line_color;
#N canvas 869 203 1049 632 color_picker 0;
#X obj 53 150 hsl 128 12 0 255 0 0 \$0-r \$0-r-rcv R=0 2 7 0 10 #dcdcdc
#fc0400 #000000 0 0;
#X obj 53 162 hsl 128 12 0 255 0 0 \$0-g \$0-g-rcv G=0 2 7 0 10 #dcdcdc
#00fc04 #000000 0 0;
#X obj 53 174 hsl 128 12 0 255 0 0 \$0-b \$0-b-rcv B=0 2 7 0 10 #dcdcdc
#0400fc #000000 0 0;
#X obj 183 150 tgl 36 0 \$0-prev \$0-prev-rcv empty 17 7 0 10 #000000
#000000 #000000 0 1;
#X obj 305 68 r \$0-r;
#X obj 305 143 makefilename %02x;
#X obj 465 143 makefilename %02x;
#X obj 615 143 makefilename %02x;
#X obj 425 38 r \$0-g;
#X obj 575 38 r \$0-b;
#X obj 305 106 f;
#X obj 425 63 t b f;
#X obj 575 76 t b f;
#X obj 306 183 pack s s s;
#X obj 304 326 s \$0-prev-rcv;
#X msg 307 282 color #\$1\$2\$3 #\$1\$2\$3 #\$1\$2\$3;
#X obj 132 286 int;
#X obj 130 252 r \$0-r;
#X obj 134 338 s \$0-r-rcv;
#X msg 134 313 label R=\$1;
#X obj 142 406 int;
#X obj 242 406 int;
#X obj 140 372 r \$0-g;
#X obj 144 458 s \$0-g-rcv;
#X obj 240 372 r \$0-b;
#X obj 244 458 s \$0-b-rcv;
#X msg 144 433 label G=\$1;
#X msg 244 433 label B=\$1;
#X obj 341 235 s \$0-color;
#X msg 336 209 symbol #\$1\$2\$3;
#X connect 4 0 10 0;
#X connect 5 0 13 0;
#X connect 6 0 13 1;
#X connect 7 0 13 2;
#X connect 8 0 11 0;
#X connect 9 0 12 0;
#X connect 10 0 5 0;
#X connect 11 0 10 0;
#X connect 11 1 6 0;
#X connect 12 0 10 0;
#X connect 12 1 7 0;
#X connect 13 0 15 0;
#X connect 13 0 29 0;
#X connect 15 0 14 0;
#X connect 16 0 19 0;
#X connect 17 0 16 0;
#X connect 19 0 18 0;
#X connect 20 0 26 0;
#X connect 21 0 27 0;
#X connect 22 0 20 0;
#X connect 24 0 21 0;
#X connect 26 0 23 0;
#X connect 27 0 25 0;
#X connect 29 0 28 0;
#X coords 0 -1 1 1 169 36 2 50 150;
#X restore 186 268 pd color_picker;
#X text 210 183 points;
#X obj 323 188 tgl 15 0 \$0-editable \$0-editable-rcv Editable 17 7
0 10 #fcfcfc #000000 #000000 0 1;
#X obj 476 474 loadbang;
#X msg 578 546 0;
#X obj 687 682 text define \$0-dump;
#X obj 668 653 text insert \$0-dump;
#X obj 416 633 select 1 0;
#X obj 417 590 f 1;
#X obj 688 733 text sequence \$0-dump;
#X msg 451 672 line 0 \, bang;
#X obj 878 456 r _STAGE_GET_ARRAY_STYLE_\$1;
#X obj 877 602 s;
#X text 1272 141 dump array style on demand;
#X text 1324 171 https://github.com/jyg/stage;
#X obj 100 310 cnv 15 400 90 empty empty empty 20 12 0 14 #bbbbbb #404040
0;
#N canvas 869 203 1049 632 color_picker 0;
#X obj 53 150 hsl 128 12 0 255 0 0 \$0-r_back \$0-r_back-rcv R=255
2 7 0 10 #dcdcdc #fc0400 #000000 0 0;
#X obj 53 162 hsl 128 12 0 255 0 0 \$0-g_back \$0-g_back-rcv G=255
2 7 0 10 #dcdcdc #00fc04 #000000 0 0;
#X obj 53 174 hsl 128 12 0 255 0 0 \$0-b_back \$0-b_back-rcv B=255
2 7 0 10 #dcdcdc #0400fc #000000 0 0;
#X obj 183 150 tgl 36 0 \$0-prev_back \$0-prev_back-rcv empty 17 7
0 10 #ffffff #ffffff #ffffff 0 1;
#X obj 305 68 r \$0-r_back;
#X obj 305 143 makefilename %02x;
#X obj 465 143 makefilename %02x;
#X obj 615 143 makefilename %02x;
#X obj 425 38 r \$0-g_back;
#X obj 575 38 r \$0-b_back;
#X obj 305 106 f;
#X obj 425 63 t b f;
#X obj 575 76 t b f;
#X obj 306 183 pack s s s;
#X obj 304 326 s \$0-prev_back-rcv;
#X msg 307 282 color #\$1\$2\$3 #\$1\$2\$3 #\$1\$2\$3;
#X obj 132 286 int;
#X obj 130 252 r \$0-r_back;
#X obj 134 338 s \$0-r_back-rcv;
#X msg 134 313 label R=\$1;
#X obj 142 406 int;
#X obj 242 406 int;
#X obj 140 372 r \$0-g_back;
#X obj 144 458 s \$0-g_back-rcv;
#X obj 240 372 r \$0-b_back;
#X obj 244 458 s \$0-b_back-rcv;
#X msg 144 433 label G=\$1;
#X msg 244 433 label B=\$1;
#X obj 341 235 s \$0-color_back;
#X msg 336 209 symbol #\$1\$2\$3;
#X connect 4 0 10 0;
#X connect 5 0 13 0;
#X connect 6 0 13 1;
#X connect 7 0 13 2;
#X connect 8 0 11 0;
#X connect 9 0 12 0;
#X connect 10 0 5 0;
#X connect 11 0 10 0;
#X connect 11 1 6 0;
#X connect 12 0 10 0;
#X connect 12 1 7 0;
#X connect 13 0 15 0;
#X connect 13 0 29 0;
#X connect 15 0 14 0;
#X connect 16 0 19 0;
#X connect 17 0 16 0;
#X connect 19 0 18 0;
#X connect 20 0 26 0;
#X connect 21 0 27 0;
#X connect 22 0 20 0;
#X connect 24 0 21 0;
#X connect 26 0 23 0;
#X connect 27 0 25 0;
#X connect 29 0 28 0;
#X coords 0 -1 1 1 169 36 2 50 150;
#X restore 127 345 pd color_picker;
#N canvas 869 203 1049 632 color_picker 0;
#X obj 53 150 hsl 128 12 0 255 0 0 \$0-r_top \$0-r_top-rcv R=255 2
7 0 10 #dcdcdc #fc0400 #000000 0 0;
#X obj 53 162 hsl 128 12 0 255 0 0 \$0-g_top \$0-g_top-rcv G=255 2
7 0 10 #dcdcdc #00fc04 #000000 0 0;
#X obj 53 174 hsl 128 12 0 255 0 0 \$0-b_top \$0-b_top-rcv B=255 2
7 0 10 #dcdcdc #0400fc #000000 0 0;
#X obj 183 150 tgl 36 0 \$0-prev_top \$0-prev_top-rcv empty 17 7 0
10 #ffffff #ffffff #ffffff 0 1;
#X obj 305 68 r \$0-r_top;
#X obj 305 143 makefilename %02x;
#X obj 465 143 makefilename %02x;
#X obj 615 143 makefilename %02x;
#X obj 425 38 r \$0-g_top;
#X obj 575 38 r \$0-b_top;
#X obj 305 106 f;
#X obj 425 63 t b f;
#X obj 575 76 t b f;
#X obj 306 183 pack s s s;
#X obj 304 326 s \$0-prev_top-rcv;
#X msg 307 282 color #\$1\$2\$3 #\$1\$2\$3 #\$1\$2\$3;
#X obj 132 286 int;
#X obj 130 252 r \$0-r_top;
#X obj 134 338 s \$0-r_top-rcv;
#X msg 134 313 label R=\$1;
#X obj 142 406 int;
#X obj 242 406 int;
#X obj 140 372 r \$0-g_top;
#X obj 144 458 s \$0-g_top-rcv;
#X obj 240 372 r \$0-b_top;
#X obj 244 458 s \$0-b_top-rcv;
#X msg 144 433 label G=\$1;
#X msg 244 433 label B=\$1;
#X obj 341 235 s \$0-color_top;
#X msg 336 209 symbol #\$1\$2\$3;
#X connect 4 0 10 0;
#X connect 5 0 13 0;
#X connect 6 0 13 1;
#X connect 7 0 13 2;
#X connect 8 0 11 0;
#X connect 9 0 12 0;
#X connect 10 0 5 0;
#X connect 11 0 10 0;
#X connect 11 1 6 0;
#X connect 12 0 10 0;
#X connect 12 1 7 0;
#X connect 13 0 15 0;
#X connect 13 0 29 0;
#X connect 15 0 14 0;
#X connect 16 0 19 0;
#X connect 17 0 16 0;
#X connect 19 0 18 0;
#X connect 20 0 26 0;
#X connect 21 0 27 0;
#X connect 22 0 20 0;
#X connect 24 0 21 0;
#X connect 26 0 23 0;
#X connect 27 0 25 0;
#X connect 29 0 28 0;
#X coords 0 -1 1 1 169 36 2 50 150;
#X restore 316 345 pd color_picker;
#X text 111 312 Open Stage Control export;
#X text 139 327 background color;
#X text 329 327 fill color;
#X obj 179 450 r \$0-color_back;
#X obj 182 475 r \$0-color_top;
#X obj 156 384 hsl 64 10 0 1 0 0 \$0-alpha_back \$0-alpha_back-rcv
ALPHA=0.00 3 5 0 10 #fcfcfc #000000 #000000 0 1;
#X obj 346 385 hsl 64 10 0 1 0 0 \$0-alpha_top \$0-alpha_top-rcv ALPHA=0.00
3 5 0 10 #fcfcfc #000000 #000000 0 1;
#X obj 111 507 r \$0-alpha_back;
#X msg 113 574 label ALPHA=\$1;
#X obj 115 601 s \$0-alpha_back-rcv;
#X obj 112 541 makefilename %.2f;
#X msg 253 574 label ALPHA=\$1;
#X obj 252 541 makefilename %.2f;
#X obj 251 507 r \$0-alpha_top;
#X obj 255 601 s \$0-alpha_top-rcv;
#X obj 1131 302 symbol;
#X obj 1174 271 r \$0-color_back;
#X msg 1107 335 -color_back \$1;
#X obj 1321 302 symbol;
#X obj 1364 271 r \$0-color_top;
#X msg 1297 335 -color_fill \$1;
#N canvas 0 0 740 891 new-pd-color-sheme_to_rvba 0;
#X obj 36 21 inlet;
#X obj 60 101 list fromsymbol;
#X obj 60 148 list split 1;
#X obj 104 186 list split 2;
#X obj 224 259 list split 2;
#X msg 121 59 symbol #ff0000;
#N canvas 0 0 450 300 0x00_to_f 0;
#X obj 65 27 inlet;
#X obj 202 293 outlet;
#X obj 201 66 unpack f f;
#X obj 200 113 moses 97;
#X obj 200 138 - 48;
#X obj 255 140 - 87;
#X obj 201 184 t f;
#X obj 290 113 moses 97;
#X obj 290 138 - 48;
#X obj 345 140 - 87;
#X obj 291 184 t f;
#X obj 201 209 * 16;
#X obj 201 234 +;
#X connect 0 0 2 0;
#X connect 2 0 3 0;
#X connect 2 1 7 0;
#X connect 3 0 4 0;
#X connect 3 1 5 0;
#X connect 4 0 6 0;
#X connect 5 0 6 0;
#X connect 6 0 11 0;
#X connect 7 0 8 0;
#X connect 7 1 9 0;
#X connect 8 0 10 0;
#X connect 9 0 10 0;
#X connect 10 0 12 1;
#X connect 11 0 12 0;
#X connect 12 0 1 0;
#X restore 106 304 pd 0x00_to_f;
#N canvas 0 0 450 300 0x00_to_f 0;
#X obj 65 27 inlet;
#X obj 201 66 unpack f f;
#X obj 200 113 moses 97;
#X obj 200 138 - 48;
#X obj 255 140 - 87;
#X obj 201 184 t f;
#X obj 290 113 moses 97;
#X obj 290 138 - 48;
#X obj 345 140 - 87;
#X obj 291 184 t f;
#X obj 201 209 * 16;
#X obj 201 234 +;
#X obj 201 259 outlet;
#X connect 0 0 1 0;
#X connect 1 0 2 0;
#X connect 1 1 6 0;
#X connect 2 0 3 0;
#X connect 2 1 4 0;
#X connect 3 0 5 0;
#X connect 4 0 5 0;
#X connect 5 0 10 0;
#X connect 6 0 7 0;
#X connect 6 1 8 0;
#X connect 7 0 9 0;
#X connect 8 0 9 0;
#X connect 9 0 11 1;
#X connect 10 0 11 0;
#X connect 11 0 12 0;
#X restore 216 304 pd 0x00_to_f;
#N canvas 0 0 450 300 0x00_to_f 0;
#X obj 65 27 inlet;
#X obj 90 250 outlet;
#X obj 201 66 unpack f f;
#X obj 200 113 moses 97;
#X obj 200 138 - 48;
#X obj 255 140 - 87;
#X obj 201 184 t f;
#X obj 290 113 moses 97;
#X obj 290 138 - 48;
#X obj 345 140 - 87;
#X obj 291 184 t f;
#X obj 201 209 * 16;
#X obj 201 234 +;
#X connect 0 0 2 0;
#X connect 2 0 3 0;
#X connect 2 1 7 0;
#X connect 3 0 4 0;
#X connect 3 1 5 0;
#X connect 4 0 6 0;
#X connect 5 0 6 0;
#X connect 6 0 11 0;
#X connect 7 0 8 0;
#X connect 7 1 9 0;
#X connect 8 0 10 0;
#X connect 9 0 10 0;
#X connect 10 0 12 1;
#X connect 11 0 12 0;
#X connect 12 0 1 0;
#X restore 330 306 pd 0x00_to_f;
#X text 391 134 pd 0.52;
#X obj 84 368 s \$0-r_back-rcv;
#X obj 211 363 s \$0-g_back-rcv;
#X obj 350 366 s \$0-b_back-rcv;
#X connect 0 0 1 0;
#X connect 1 0 2 0;
#X connect 2 1 3 0;
#X connect 3 0 6 0;
#X connect 3 1 4 0;
#X connect 4 0 7 0;
#X connect 4 1 8 0;
#X connect 5 0 1 0;
#X connect 6 0 10 0;
#X connect 7 0 11 0;
#X connect 8 0 12 0;
#X restore 1170 885 pd new-pd-color-sheme_to_rvba;
#X obj 1169 855 symbol;
#N canvas 0 0 740 891 new-pd-color-sheme_to_rvba 0;
#X obj 36 21 inlet;
#X obj 60 101 list fromsymbol;
#X obj 60 148 list split 1;
#X obj 104 186 list split 2;
#X obj 224 259 list split 2;
#X msg 121 59 symbol #ff0000;
#N canvas 0 0 450 300 0x00_to_f 0;
#X obj 65 27 inlet;
#X obj 202 293 outlet;
#X obj 201 66 unpack f f;
#X obj 200 113 moses 97;
#X obj 200 138 - 48;
#X obj 255 140 - 87;
#X obj 201 184 t f;
#X obj 290 113 moses 97;
#X obj 290 138 - 48;
#X obj 345 140 - 87;
#X obj 291 184 t f;
#X obj 201 209 * 16;
#X obj 201 234 +;
#X connect 0 0 2 0;
#X connect 2 0 3 0;
#X connect 2 1 7 0;
#X connect 3 0 4 0;
#X connect 3 1 5 0;
#X connect 4 0 6 0;
#X connect 5 0 6 0;
#X connect 6 0 11 0;
#X connect 7 0 8 0;
#X connect 7 1 9 0;
#X connect 8 0 10 0;
#X connect 9 0 10 0;
#X connect 10 0 12 1;
#X connect 11 0 12 0;
#X connect 12 0 1 0;
#X restore 106 304 pd 0x00_to_f;
#N canvas 0 0 450 300 0x00_to_f 0;
#X obj 65 27 inlet;
#X obj 201 66 unpack f f;
#X obj 200 113 moses 97;
#X obj 200 138 - 48;
#X obj 255 140 - 87;
#X obj 201 184 t f;
#X obj 290 113 moses 97;
#X obj 290 138 - 48;
#X obj 345 140 - 87;
#X obj 291 184 t f;
#X obj 201 209 * 16;
#X obj 201 234 +;
#X obj 201 259 outlet;
#X connect 0 0 1 0;
#X connect 1 0 2 0;
#X connect 1 1 6 0;
#X connect 2 0 3 0;
#X connect 2 1 4 0;
#X connect 3 0 5 0;
#X connect 4 0 5 0;
#X connect 5 0 10 0;
#X connect 6 0 7 0;
#X connect 6 1 8 0;
#X connect 7 0 9 0;
#X connect 8 0 9 0;
#X connect 9 0 11 1;
#X connect 10 0 11 0;
#X connect 11 0 12 0;
#X restore 216 304 pd 0x00_to_f;
#N canvas 0 0 450 300 0x00_to_f 0;
#X obj 65 27 inlet;
#X obj 90 250 outlet;
#X obj 201 66 unpack f f;
#X obj 200 113 moses 97;
#X obj 200 138 - 48;
#X obj 255 140 - 87;
#X obj 201 184 t f;
#X obj 290 113 moses 97;
#X obj 290 138 - 48;
#X obj 345 140 - 87;
#X obj 291 184 t f;
#X obj 201 209 * 16;
#X obj 201 234 +;
#X connect 0 0 2 0;
#X connect 2 0 3 0;
#X connect 2 1 7 0;
#X connect 3 0 4 0;
#X connect 3 1 5 0;
#X connect 4 0 6 0;
#X connect 5 0 6 0;
#X connect 6 0 11 0;
#X connect 7 0 8 0;
#X connect 7 1 9 0;
#X connect 8 0 10 0;
#X connect 9 0 10 0;
#X connect 10 0 12 1;
#X connect 11 0 12 0;
#X connect 12 0 1 0;
#X restore 330 306 pd 0x00_to_f;
#X text 391 134 pd 0.52;
#X obj 84 368 s \$0-r_top-rcv;
#X obj 211 363 s \$0-g_top-rcv;
#X obj 350 366 s \$0-b_top-rcv;
#X connect 0 0 1 0;
#X connect 1 0 2 0;
#X connect 2 1 3 0;
#X connect 3 0 6 0;
#X connect 3 1 4 0;
#X connect 4 0 7 0;
#X connect 4 1 8 0;
#X connect 5 0 1 0;
#X connect 6 0 10 0;
#X connect 7 0 11 0;
#X connect 8 0 12 0;
#X restore 1260 945 pd new-pd-color-sheme_to_rvba;
#X obj 1259 915 symbol;
#X msg 165 742 -linewidth 1 \, -editable 1 \, -style 0 \, -color #000000
\, -color_back #ffffff \, -color_fill #ffffff \, -alpha_back 0 \, -alpha_fill
0;
#X obj 1537 266 v \$0-alpha_back;
#X obj 1673 264 v \$0-alpha_top;
#X obj 835 244 t b b b b b b b b;
#X msg 1537 291 -alpha_back \$1;
#X msg 1673 289 -alpha_fill \$1;
#X obj 665 798 route -color -linewidth -style -editable -color_back
-color_fill -alpha_back -alpha_fill, f 99;
#X obj 1489 808 s \$0-alpha_back-rcv;
#X obj 1625 806 s \$0-alpha_top-rcv;
#X obj 900 928 v \$0-linewidth;
#X obj 866 905 delay 1;
#X obj 865 857 r \$0-style;
#X obj 865 882 t b;
#X obj 668 534 list prepend 0;
#X obj 667 595 list;
#X msg 867 512 1;
#X obj 878 481 t b b b s;
#X msg 823 502 0;
#X obj 667 563 route 0 1;
#X connect 1 0 40 0;
#X connect 1 0 42 0;
#X connect 1 1 82 0;
#X connect 2 0 5 0;
#X connect 3 0 2 1;
#X connect 4 0 85 0;
#X connect 5 0 92 0;
#X connect 6 0 0 0;
#X connect 7 0 8 0;
#X connect 8 0 92 0;
#X connect 10 0 11 0;
#X connect 11 0 92 0;
#X connect 13 0 15 0;
#X connect 15 0 14 0;
#X connect 17 0 18 0;
#X connect 18 0 19 0;
#X connect 19 0 16 0;
#X connect 20 0 21 0;
#X connect 21 0 16 0;
#X connect 22 0 23 0;
#X connect 23 0 16 0;
#X connect 24 0 25 0;
#X connect 25 0 16 0;
#X connect 27 0 28 0;
#X connect 28 0 92 0;
#X connect 39 0 44 0;
#X connect 40 0 44 1;
#X connect 43 0 79 0;
#X connect 43 1 46 0;
#X connect 44 0 43 0;
#X connect 45 0 4 0;
#X connect 46 0 45 0;
#X connect 47 0 95 0;
#X connect 61 0 64 0;
#X connect 62 0 63 0;
#X connect 64 0 62 0;
#X connect 65 0 68 0;
#X connect 66 0 65 0;
#X connect 67 0 66 0;
#X connect 69 0 71 0;
#X connect 70 0 69 1;
#X connect 71 0 92 0;
#X connect 72 0 74 0;
#X connect 73 0 72 1;
#X connect 74 0 92 0;
#X connect 76 0 75 0;
#X connect 78 0 77 0;
#X connect 79 0 85 0;
#X connect 80 0 83 0;
#X connect 81 0 84 0;
#X connect 82 0 2 0;
#X connect 82 1 7 0;
#X connect 82 2 10 0;
#X connect 82 3 27 0;
#X connect 82 4 69 0;
#X connect 82 5 72 0;
#X connect 82 6 80 0;
#X connect 82 7 81 0;
#X connect 83 0 92 0;
#X connect 84 0 92 0;
#X connect 85 0 6 0;
#X connect 85 1 9 0;
#X connect 85 2 12 0;
#X connect 85 3 26 0;
#X connect 85 4 76 0;
#X connect 85 5 78 0;
#X connect 85 6 86 0;
#X connect 85 7 87 0;
#X connect 88 0 9 0;
#X connect 89 0 88 0;
#X connect 90 0 91 0;
#X connect 91 0 89 0;
#X connect 92 0 97 0;
#X connect 93 0 1 0;
#X connect 94 0 92 1;
#X connect 95 0 96 0;
#X connect 95 1 82 0;
#X connect 95 2 94 0;
#X connect 95 3 48 1;
#X connect 96 0 92 1;
#X connect 97 0 93 0;
#X connect 97 1 48 0;
#X coords 0 -1 1 1 400 300 2 100 100;
#X restore 2 2 pd guts;
