#N canvas 0 0 1920 1021 12;
#X obj 305 392 oscparse;
#X obj 300 77 list prepend send;
#X obj 300 102 list trim;
#X obj 305 417 list split 1;
#X obj 290 476 list append;
#X obj 305 442 t b s;
#X obj 314 610 s, f 14;
#X obj 300 47 r toOSC;
#X obj 290 513 t b a b;
#X obj 126 678 s NOT_FROM_OSC;
#X msg 181 650 0;
#X msg 131 652 1;
#N canvas 332 549 450 300 \$0-network_settings 1;
#X obj 154 194 outlet;
#X obj 80 38 inlet;
#X obj 155 168 netreceive -u -b 7777;
#X obj 80 106 netsend -u -b;
#X msg 162 64 connect localhost 5678;
#X obj 80 131 tgl 15 0 empty empty empty 17 7 0 10 #fcfcfc #000000
#000000 0 1;
#X obj 162 36 loadbang;
#X text 36 242 ctrl + s to save;
#X text 36 261 ctrl + w to close;
#X obj 276 235 oscparse;
#X obj 276 260 print;
#X obj 306 198 spigot;
#X obj 363 169 tgl 15 1 empty empty debug 17 7 0 10 #fcfcfc #000000
#000000 0 1;
#X text 196 88 "osc-port" in Open Stage Control;
#X text 197 144 "send" port in Open Stage Control;
#X connect 1 0 3 0;
#X connect 2 0 0 0;
#X connect 2 0 11 0;
#X connect 3 0 5 0;
#X connect 4 0 3 0;
#X connect 6 0 4 0;
#X connect 9 0 10 0;
#X connect 11 0 9 0;
#X connect 12 0 11 1;
#X restore 303 359 pd \$0-network_settings;
#X obj 103 103 bng 15 250 50 0 \$0-network_settings empty network_settings
17 7 0 10 #00ff04 #000000 #000000;
#X obj 1528 115 r \$0-network_settings;
#X msg 1528 140 vis 1;
#X obj 1528 165 s pd-\$0-network_settings;
#X msg 407 546 symbol _FROM_OSC_\$1;
#X connect 0 0 3 0;
#X connect 1 0 2 0;
#X connect 2 0 12 0;
#X connect 3 0 5 0;
#X connect 3 1 4 1;
#X connect 4 0 8 0;
#X connect 5 0 4 0;
#X connect 5 1 17 0;
#X connect 7 0 1 0;
#X connect 8 1 6 0;
#X connect 10 0 9 0;
#X connect 11 0 9 0;
#X connect 12 0 0 0;
#X connect 14 0 15 0;
#X connect 15 0 16 0;
#X connect 17 0 6 1;
#X coords 0 -1 1 1 120 20 2 100 100;
