#N canvas 651 22 1267 579 16;
#X obj 100 100 cnv 15 400 400 empty empty BACKGROUND 20 12 0 14 #dfdfdf
#dfdfdf 0;
#X obj 118 147 vsl 80 256 0.25 4 1 1 vfader_1 vfader_1-rcv FADER1 3
23 0 10 #faff00 #000000 #000000 14350 0;
#X obj 204 147 vsl 80 256 0 127 0 0 vfader_2 vfader_2-rcv FADER2 0
-9 0 10 #ff0400 #000000 #9c00ff 0 1;
#X floatatom 673 437 5 0 0 0 - - - 0;
#X obj 673 412 r vfader_1;
#X floatatom 574 435 5 0 0 0 - - - 0;
#X obj 574 410 r vfader_2;
#X obj 110 443 hsl 380 50 0 127 0 0 timeline timeline-rcv TIMELINE
-2 -8 0 10 #c7c6ff #000000 #000000 0 1;
#N canvas 1059 591 450 250 (subpatch) 0;
#X array array1 128 float 0;
#X coords 0 1 127 0 200 140 2 0 0;
#X restore 294 152 graph;
#X obj 554 344 s array1-rcv;
#X msg 554 318 refresh;
#X obj 562 128 pdob;
#X text 294 297 programmatically refresh remote GUI array :, f 19
;
#X obj 298 363 tgl 60 1 my_toogle my_toogle-rcv toogle 60 7 0 20 #c6feff
#0400ff #000000 0 1;
#N canvas 0 0 735 343 pdob-stuff 0;
#X obj 20 50 tools/pdob_listener vfader_1 vfader_1-rcv;
#X obj 20 100 tools/pdob_listener vfader_2 vfader_2-rcv;
#X obj 20 150 tools/pdob_listener timeline timeline-rcv;
#X obj 20 200 tools/pdob_array_listener array1 array1-rcv;
#X obj 20 250 tools/pdob_listener my_toogle my_toogle-rcv;
#X obj 20 300 tools/pdob_bng_listener my_bang my_bang-rcv 250;
#X restore 562 98 pd pdob-stuff;
#X obj 427 392 bng 50 250 250 0 my_bang my_bang-rcv GO 2 20 0 40 #ff8300
#00ff04 #ffffff;
#X text 447 364 bng;
#X connect 4 0 3 0;
#X connect 6 0 5 0;
#X connect 10 0 9 0;
#X coords 0 -1 1 1 400 400 1 100 100;
