#N struct 1004-barray array z 1004-arrayelement float color;
#N struct 1004-arrayelement float zz;
#N canvas 45 4 1536 1016 12;
#X obj 100 100 cnv 15 400 400 empty empty BACKGROUND 20 12 0 14 #dfdfdf
#dfdfdf 0;
#X obj 118 147 vsl 80 256 0.25 4 1 1 vfader_1 vfader_1-rcv FADER1 3
23 0 10 #faff00 #000000 #000000 18600 0;
#X obj 204 147 vsl 80 256 0 127 0 0 vfader_2 vfader_2-rcv FADER2 0
-9 0 10 #ff0400 #000000 #9c00ff 0 1;
#X text 649 49 vsl -> fader;
#X obj 804 121 oscformat root;
#X msg 811 91 \$1 0;
#X text 815 48 horizontal scroll;
#X floatatom 872 777 5 0 0 0 - - - 0;
#X obj 872 752 r vfader_1;
#X floatatom 845 779 5 0 0 0 - - - 0;
#X obj 845 754 r vfader_2;
#X obj 985 154 s toOSC;
#X floatatom 985 50 5 0 0 0 - - - 0;
#X obj 921 125 oscformat textarea_1 left;
#X obj 110 443 hsl 380 50 0 127 0 0 timeline timeline-rcv TIMELINE
-2 -8 0 10 #c7c6ff #000000 #000000 0 1;
#X text 679 227 active area = graphon parent;
#X text 672 325 todo : network wrapper in external abstraction;
#X text 717 362 titre;
#X text 822 363 open_stage Gui Generator;
#X text 829 386 pd2osc;
#X text 686 435 toggle / bang / radio;
#X text 686 468 canvas;
#X text 689 500 table;
#X text 687 527 xy;
#X text 794 501 multislider;
#X text 689 554 number;
#X text 818 382 remote-gui;
#X text 952 351 open_stage_wrapper;
#N canvas 1059 591 450 250 (subpatch) 0;
#X array array1 128 float 0;
#X coords 0 1 127 0 200 140 2 0 0;
#X restore 294 152 graph;
#X obj 683 775 bng 15 250 50 0 empty empty empty 17 7 0 10 #fcfcfc
#000000 #000000;
#X text 703 770 update remoteGUI;
#N canvas 0 0 1148 843 openstagecontrol-plot_syntax 0;
#X obj 273 258 s toOSC;
#X obj 282 224 oscformat plot_1;
#X msg 194 164 0.5 0.7 0.6;
#X obj 413 194 mob/bargraph Untitled_1* Untitled_1*-rcv 162;
#A saved -back_alpha 1;
#A saved -front_alpha 1;
#A saved -save_contents 0;
#A saved -front_color -1 255 255;
#A saved -back_color -1 255 255;
#A saved -back_color -1 255 255;
#A saved -size 10;
#A saved -name Untitled_1*;
#A saved -borders 0;
#A saved -xto 10;
#A saved -style 0;
#A saved -xfrom 0;
#A saved -height 140;
#A saved -width 200;
#X msg 259 121 0 0;
#X listbox 359 177 55 0 0 0 - - - 0;
#X msg 159 89 symbol [[0\\\,0]\\\,[0.5\\\,0.7]\\\,[0.7\\\,.5]\\\,[0.3\\\,0.3]\\\,[0\\\,0]]
;
#X listbox 344 153 58 0 0 0 - - - 0;
#X msg 129 44 symbol [[0.1\\\,0]\\\,[0.5\\\,0.3]\\\,[0.4\\\,0.2]\\\,[0.7\\\,0.7]\\\,[0.2\\\,0]]
;
#X obj 53 113 r xy_1;
#X obj 56 140 unpack f f;
#X obj 56 207 * 10;
#X obj 56 234 int;
#X obj 54 327 pack f f;
#X obj 139 357 list fromsymbol;
#X obj 144 448 list tosymbol;
#X listbox 216 327 20 0 0 0 - - - 0;
#X msg 117 117 0 1;
#X msg 292 192 symbol "0:0";
#X msg 139 333 symbol 0:1\\\,4:0;
#X obj 139 381 list prepend 123;
#X obj 142 406 list append 125;
#X obj 57 161 t f b;
#X obj 87 184 array size array1;
#X connect 1 0 0 0;
#X connect 2 0 1 0;
#X connect 3 0 1 0;
#X connect 4 0 1 0;
#X connect 6 0 1 0;
#X connect 6 0 5 0;
#X connect 8 0 1 0;
#X connect 8 0 7 0;
#X connect 9 0 10 0;
#X connect 10 0 22 0;
#X connect 10 1 13 1;
#X connect 11 0 12 0;
#X connect 12 0 13 0;
#X connect 13 0 19 0;
#X connect 14 0 20 0;
#X connect 15 0 16 0;
#X connect 17 0 10 0;
#X connect 18 0 1 0;
#X connect 19 0 14 0;
#X connect 20 0 21 0;
#X connect 21 0 15 0;
#X connect 22 0 11 0;
#X connect 22 1 23 0;
#X connect 23 0 11 1;
#X restore 894 647 pd openstagecontrol-plot_syntax;
#X obj 522 309 s array1-rcv;
#X msg 522 276 refresh;
#X text 695 877 programmatically refresh remote GUI client;
#N canvas 0 0 1920 1021 arrays_updates_from_osc 0;
#X obj 107 911 s toOSC;
#X obj 146 60 unpack f f;
#X obj 146 127 * 10;
#X obj 146 154 int;
#X obj 114 817 array get array1;
#X msg 207 37 0 1;
#X obj 147 81 t f b;
#X obj 177 104 array size array1;
#X obj 176 289 timer;
#X obj 192 180 bng 15 250 50 0 empty empty empty 17 7 0 10 #fcfcfc
#000000 #000000;
#X obj 175 243 t b b f;
#X obj 176 314 > 100;
#X obj 213 363 pack f f f;
#X obj 213 388 route 1 0;
#X msg 201 456 \$2 \$1;
#X obj 201 523 tabwrite array1;
#X obj 199 476 t b l;
#X obj 616 501 list append;
#X obj 616 526 unpack f f;
#X obj 464 498 unpack f f;
#X obj 459 571 -;
#X obj 465 423 t l l b, f 33;
#X obj 462 606 moses 0;
#X obj 415 698 abs;
#X obj 388 794 until;
#X obj 449 637 t f b;
#X obj 507 638 t f b;
#X obj 388 819 f;
#X obj 429 818 + 1;
#X msg 487 727 -1;
#X msg 524 730 1;
#X obj 429 887 f;
#X obj 380 953 tabwrite array1;
#X obj 382 913 swap;
#X obj 380 849 t f b;
#X obj 535 574 -;
#X obj 473 889 +;
#X obj 538 778 pack f f;
#X msg 540 809 \$2 \$1;
#X obj 540 834 /;
#X obj 368 744 t b f f;
#X obj 203 412 t l l;
#X obj 77 526 inlet;
#X obj 77 550 t b;
#X text 492 368 interpolation si balayage curseur trop rapide;
#X obj 962 481 s pd-_float_array_template;
#X obj 960 331 f;
#X obj 960 353 sel;
#X msg 960 375 obj 63 93 s ___array_pointer \, obj 63 116 r ___array_template_test
\, obj 63 139 1 \, obj 63 162 s ___array_template_test_result \, connect
0 0 2 0 \, connect 3 0 4 0 \, connect 4 0 5 0 \, dirty 0;
#X obj 978 309 r ___array_template_test_result;
#X obj 983 287 s ___array_template_test;
#X msg 1267 310 vis 1;
#X msg 1319 315 vis 0;
#X obj 932 215 loadbang;
#X obj 937 265 t b b;
#X obj 1188 525 r ___array_pointer;
#X obj 1188 575 print;
#X text 1027 103 credits : ingox https://forum.pdpatchrepo.info/user/ingox
https://forum.pdpatchrepo.info/topic/11184/colarray-a-graphical-array-where-color-and-line-width-can-be-set
;
#X obj 116 877 oscformat array1;
#X obj 72 11 r array_name.digitizer;
#X connect 1 0 6 0;
#X connect 1 1 12 2;
#X connect 2 0 3 0;
#X connect 3 0 10 0;
#X connect 4 0 58 0;
#X connect 5 0 1 0;
#X connect 6 0 2 0;
#X connect 6 1 7 0;
#X connect 7 0 2 1;
#X connect 8 0 11 0;
#X connect 9 0 10 0;
#X connect 10 0 8 0;
#X connect 10 1 8 1;
#X connect 10 2 12 1;
#X connect 11 0 12 0;
#X connect 12 0 13 0;
#X connect 13 0 41 0;
#X connect 13 1 21 0;
#X connect 14 0 16 0;
#X connect 16 0 4 0;
#X connect 16 1 15 0;
#X connect 17 0 18 0;
#X connect 18 0 20 1;
#X connect 18 0 27 1;
#X connect 18 1 31 1;
#X connect 18 1 35 1;
#X connect 19 0 20 0;
#X connect 19 1 35 0;
#X connect 20 0 22 0;
#X connect 21 0 19 0;
#X connect 21 1 17 1;
#X connect 21 2 17 0;
#X connect 22 0 25 0;
#X connect 22 1 26 0;
#X connect 23 0 40 0;
#X connect 24 0 27 0;
#X connect 25 0 23 0;
#X connect 25 1 29 0;
#X connect 26 0 23 0;
#X connect 26 1 30 0;
#X connect 27 0 28 0;
#X connect 27 0 34 0;
#X connect 28 0 27 1;
#X connect 29 0 28 1;
#X connect 30 0 28 1;
#X connect 31 0 33 1;
#X connect 31 0 36 0;
#X connect 33 0 32 0;
#X connect 33 1 32 1;
#X connect 34 0 33 0;
#X connect 34 1 31 0;
#X connect 35 0 37 1;
#X connect 36 0 31 1;
#X connect 37 0 38 0;
#X connect 38 0 39 0;
#X connect 39 0 36 1;
#X connect 40 0 4 0;
#X connect 40 1 24 0;
#X connect 40 2 37 0;
#X connect 41 0 14 0;
#X connect 41 1 17 1;
#X connect 42 0 43 0;
#X connect 43 0 4 0;
#X connect 46 0 47 0;
#X connect 47 0 48 0;
#X connect 48 0 45 0;
#X connect 49 0 46 1;
#X connect 51 0 45 0;
#X connect 52 0 45 0;
#X connect 53 0 54 0;
#X connect 54 0 46 0;
#X connect 54 1 50 0;
#X connect 55 0 56 0;
#X connect 58 0 0 0;
#X connect 59 0 1 0;
#X restore 677 807 pd arrays_updates_from_osc;
#X text 951 460 open stage remote;
#X text 681 265 X backgroundcolor : placer un canvas avec le label
BACKGROUND, f 66;
#X obj 561 112 pdob;
#N canvas 636 512 450 300 pdob-stuff 0;
#X obj 20 50 tools/pdob_listener vfader_1 vfader_1-rcv;
#X obj 20 100 tools/pdob_listener vfader_2 vfader_2-rcv;
#X obj 20 150 tools/pdob_listener timeline timeline-rcv;
#X obj 20 200 tools/pdob_array_listener array1 array1-rcv;
#X restore 561 82 pd pdob-stuff;
#X msg 331 652 \; array1 width 4;
#X obj 378 779 get - color linewidth;
#X floatatom 378 804 5 0 0 0 - - - 0;
#X floatatom 517 806 5 0 0 0 - - - 0;
#X obj 389 706 r ___array_pointer;
#X obj 383 743 route click;
#X obj 1076 559 s array2;
#X msg 1077 519 send ducon;
#X msg 337 590 \; array1 color 830 \; array1 edit 1;
#X connect 4 0 11 0;
#X connect 5 0 4 0;
#X connect 8 0 7 0;
#X connect 10 0 9 0;
#X connect 12 0 13 0;
#X connect 13 0 11 0;
#X connect 29 0 35 0;
#X connect 33 0 32 0;
#X connect 41 0 42 0;
#X connect 41 1 43 0;
#X connect 44 0 45 0;
#X connect 45 0 41 0;
#X connect 47 0 46 0;
#X coords 0 -1 1 1 400 400 1 100 100;
