#N canvas 704 308 650 468 12;
#X obj 41 14 inlet;
#X obj 40 421 outlet;
#X obj 194 477 s bin;
#X obj 158 261 list fromsymbol;
#X obj 154 137 list append \$1;
#X obj 193 441 list prepend;
#X text 166 46 first item ?;
#X msg 362 349 44 32;
#X obj 414 38 inlet;
#X msg 155 232 symbol '\$1;
#X obj 175 351 list split 1;
#X obj 40 47 v PREPEND_COMMA;
#X obj 54 352 v PREPEND_COMMA;
#X obj 39 80 t b b b f, f 40;
#X msg 92 298 1;
#X obj 324 285 select 0 1;
#X connect 0 0 11 0;
#X connect 3 0 10 0;
#X connect 4 0 9 0;
#X connect 5 0 2 0;
#X connect 7 0 5 1;
#X connect 8 0 4 1;
#X connect 9 0 3 0;
#X connect 10 1 5 0;
#X connect 11 0 13 0;
#X connect 13 0 1 0;
#X connect 13 1 14 0;
#X connect 13 2 4 0;
#X connect 13 3 15 0;
#X connect 14 0 12 0;
#X connect 15 0 5 1;
#X connect 15 1 7 0;
