#N canvas 0 0 1920 1021 12;
#X obj 41 15 inlet;
#X obj 40 487 outlet;
#X obj 158 301 list fromsymbol;
#X obj 154 177 list append \$1;
#X obj 217 424 list prepend;
#X text 166 86 first item ?;
#X msg 362 389 44 32;
#X obj 414 78 inlet;
#X msg 155 272 symbol '\$1;
#X obj 175 391 list split 1;
#X obj 40 87 v PREPEND_COMMA;
#X obj 54 392 v PREPEND_COMMA;
#X obj 39 120 t b b b f, f 40;
#X msg 92 338 1;
#X obj 324 325 select 0 1;
#X obj 75 63 s \$0-target;
#X obj 40 460 symbol;
#X obj 81 429 r \$0-target;
#X obj 259 452 r \$0-target;
#X obj 218 483 s;
#X obj 41 39 t b s;
#X connect 0 0 20 0;
#X connect 2 0 9 0;
#X connect 3 0 8 0;
#X connect 4 0 19 0;
#X connect 6 0 4 1;
#X connect 7 0 3 1;
#X connect 8 0 2 0;
#X connect 9 1 4 0;
#X connect 10 0 12 0;
#X connect 12 0 16 0;
#X connect 12 1 13 0;
#X connect 12 2 3 0;
#X connect 12 3 14 0;
#X connect 13 0 11 0;
#X connect 14 0 4 1;
#X connect 14 1 6 0;
#X connect 16 0 1 0;
#X connect 17 0 16 1;
#X connect 18 0 19 1;
#X connect 20 0 10 0;
#X connect 20 1 15 0;
