#N canvas 653 379 881 437 12;
#X obj 77 5 inlet;
#X obj 20 335 outlet;
#X obj 195 378 list fromsymbol;
#X obj 330 11 inlet;
#X obj 382 215 select 0 1;
#X obj 423 262 select false true;
#X obj 337 176 list append \$2;
#X obj 199 231 list append \$1;
#X obj 198 284 list append true;
#X msg 398 320 true;
#X msg 363 285 false;
#X msg 197 337 symbol "\$1":\\\ \$2;
#X msg 317 482 44 13;
#X text 188 85 first item ?;
#X obj 194 450 list prepend;
#X obj 210 409 list prepend;
#X obj 321 372 r INDENT_TABS;
#X obj 73 89 v PREPEND_COMMA;
#X obj 357 421 select 0 1;
#X obj 59 229 v PREPEND_COMMA;
#X obj 63 123 t b b b b f;
#X msg 72 190 1;
#X obj 74 34 t b s;
#X obj 107 60 s \$0-target;
#X obj 26 291 symbol;
#X obj 63 264 r \$0-target;
#X obj 205 476 r \$0-target;
#X obj 186 509 s;
#X connect 0 0 22 0;
#X connect 2 0 15 0;
#X connect 3 0 6 1;
#X connect 4 0 10 0;
#X connect 4 1 9 0;
#X connect 4 2 5 0;
#X connect 5 0 10 0;
#X connect 5 1 9 0;
#X connect 6 0 4 0;
#X connect 7 0 8 0;
#X connect 8 0 11 0;
#X connect 9 0 8 1;
#X connect 10 0 8 1;
#X connect 11 0 2 0;
#X connect 12 0 14 1;
#X connect 14 0 27 0;
#X connect 15 0 14 0;
#X connect 16 0 15 1;
#X connect 17 0 20 0;
#X connect 18 0 14 1;
#X connect 18 1 12 0;
#X connect 20 0 24 0;
#X connect 20 1 21 0;
#X connect 20 2 7 0;
#X connect 20 3 6 0;
#X connect 20 4 18 0;
#X connect 21 0 19 0;
#X connect 22 0 17 0;
#X connect 22 1 23 0;
#X connect 24 0 1 0;
#X connect 25 0 24 1;
#X connect 26 0 27 1;
