#N canvas 653 379 881 437 12;
#X obj 77 5 inlet;
#X obj 39 211 outlet;
#X obj 194 496 s bin;
#X obj 195 378 list fromsymbol;
#X obj 330 11 inlet;
#X obj 382 215 select 0 1;
#X obj 423 262 select false true;
#X obj 337 176 list append \$2;
#X obj 199 231 list append \$1;
#X obj 198 284 list append true;
#X msg 398 320 true;
#X msg 363 285 false;
#X msg 197 337 symbol "\$1":\\\ \$2;
#X msg 317 482 44 13;
#X text 157 14 first item ?;
#X obj 194 450 list prepend;
#X obj 210 409 list prepend;
#X obj 321 372 r INDENT_TABS;
#X obj 83 35 v PREPEND_COMMA;
#X obj 357 421 select 0 1;
#X obj 60 174 v PREPEND_COMMA;
#X obj 73 69 t b b b b f;
#X msg 82 136 1;
#X connect 0 0 18 0;
#X connect 3 0 16 0;
#X connect 4 0 7 1;
#X connect 5 0 11 0;
#X connect 5 1 10 0;
#X connect 5 2 6 0;
#X connect 6 0 11 0;
#X connect 6 1 10 0;
#X connect 7 0 5 0;
#X connect 8 0 9 0;
#X connect 9 0 12 0;
#X connect 10 0 9 1;
#X connect 11 0 9 1;
#X connect 12 0 3 0;
#X connect 13 0 15 1;
#X connect 15 0 2 0;
#X connect 16 0 15 0;
#X connect 17 0 16 1;
#X connect 18 0 21 0;
#X connect 19 0 15 1;
#X connect 19 1 13 0;
#X connect 21 0 1 0;
#X connect 21 1 22 0;
#X connect 21 2 8 0;
#X connect 21 3 7 0;
#X connect 21 4 19 0;
#X connect 22 0 20 0;
