#N canvas 0 0 539 441 12;
#X obj 67 19 inlet;
#X obj 47 281 outlet;
#X obj 68 66 list prepend 0;
#X obj 62 100 route 0 1;
#X text 272 128 si resizable :;
#X text 271 202 si fixe :;
#X text 311 226 font-size:100%\\\;;
#X text 312 154 font-size:1vw\\\;;
#X msg 230 259 symbol "font-size:\$1vw\\\;";
#X obj 148 185 int;
#X obj 148 209 / 100;
#X obj 148 136 / 10;
#X obj 60 191 int;
#X obj 60 215 / 100;
#X obj 60 142 / 10;
#X obj 60 167 * 10000;
#X msg 16 251 symbol "font-size:\$1%\\\;";
#X obj 190 37 inlet;
#X obj 148 161 * 100;
#X connect 0 0 2 0;
#X connect 2 0 3 0;
#X connect 3 0 14 0;
#X connect 3 1 11 0;
#X connect 8 0 1 0;
#X connect 9 0 10 0;
#X connect 10 0 8 0;
#X connect 11 0 18 0;
#X connect 12 0 13 0;
#X connect 13 0 16 0;
#X connect 14 0 15 0;
#X connect 15 0 12 0;
#X connect 16 0 1 0;
#X connect 17 0 2 1;
#X connect 18 0 9 0;
