#N canvas 0 0 1920 1021 12;
#X obj 220 27 inlet;
#X obj 136 532 outlet;
#X obj 599 198 list fromsymbol;
#X obj 488 519 outlet;
#X obj 597 142 list append \$1;
#X msg 599 173 symbol "\$1":\\\ [;
#X msg 323 253 symbol ];
#X obj 325 284 list fromsymbol;
#X obj 724 263 list prepend;
#X msg 793 160 44 13;
#X obj 319 362 list prepend 13;
#X obj 231 287 t b b;
#X obj 301 512 r INDENT_TABS;
#X obj 257 555 list append;
#X obj 257 580 list split 2;
#X obj 302 612 s INDENT_TABS;
#X obj 721 403 r INDENT_TABS;
#X obj 677 446 list append;
#X obj 722 503 s INDENT_TABS;
#X msg 660 413 32 32;
#X obj 669 231 list prepend;
#X obj 737 193 r INDENT_TABS;
#X obj 335 333 list prepend;
#X obj 372 303 r INDENT_TABS;
#X obj 224 93 v PREPEND_COMMA;
#X obj 763 109 select 0 1;
#X obj 223 434 v PREPEND_COMMA;
#X msg 234 369 1;
#X obj 575 350 t b b b;
#X msg 585 415 0;
#X obj 578 511 v PREPEND_COMMA;
#X obj 240 187 t b b b b;
#X obj 226 118 t b b f;
#X obj 221 59 t b s;
#X obj 319 57 s \$0-target;
#X obj 139 504 symbol;
#X obj 188 462 r \$0-target;
#X obj 349 425 s;
#X obj 369 398 r \$0-target;
#X obj 510 471 symbol;
#X obj 544 445 r \$0-target;
#X obj 729 317 s;
#X obj 762 295 r \$0-target;
#X connect 0 0 33 0;
#X connect 2 0 20 0;
#X connect 4 0 5 0;
#X connect 5 0 2 0;
#X connect 6 0 7 0;
#X connect 7 0 22 0;
#X connect 8 0 41 0;
#X connect 9 0 8 1;
#X connect 10 0 37 0;
#X connect 11 0 27 0;
#X connect 11 1 13 0;
#X connect 12 0 13 1;
#X connect 13 0 14 0;
#X connect 14 1 15 0;
#X connect 16 0 17 1;
#X connect 17 0 18 0;
#X connect 19 0 17 0;
#X connect 20 0 8 0;
#X connect 21 0 20 1;
#X connect 22 0 10 0;
#X connect 23 0 22 1;
#X connect 24 0 32 0;
#X connect 25 0 8 1;
#X connect 25 1 9 0;
#X connect 27 0 26 0;
#X connect 28 0 39 0;
#X connect 28 1 29 0;
#X connect 28 2 19 0;
#X connect 29 0 30 0;
#X connect 31 0 35 0;
#X connect 31 1 11 0;
#X connect 31 2 6 0;
#X connect 31 3 28 0;
#X connect 32 0 31 0;
#X connect 32 1 4 0;
#X connect 32 2 25 0;
#X connect 33 0 24 0;
#X connect 33 1 34 0;
#X connect 35 0 1 0;
#X connect 36 0 35 1;
#X connect 38 0 37 1;
#X connect 39 0 3 0;
#X connect 40 0 39 1;
#X connect 42 0 41 1;
