#N canvas 0 0 1920 1021 12;
#X obj 74 0 inlet;
#X obj 78 722 outlet;
#X obj 453 384 s bin;
#X obj 170 520 outlet;
#X obj 117 337 s bin;
#X obj 376 82 pdcontrol;
#X msg 312 57 args 0;
#X obj 302 3 loadbang;
#X obj 205 209 list prepend;
#X obj 315 122 route bang;
#X obj 315 147 t b;
#X obj 362 199 list fromsymbol;
#X msg 364 161 symbol "\$1":;
#X obj 72 163 t b b b;
#X text 235 422 next object is first item in curly brackets list;
#X msg 700 237 44 13;
#X obj 404 356 list prepend;
#X text 161 14 first item ?;
#X obj 73 69 t b b f;
#X text 764 237 prepend with a commm if not first item in the lis;
#X msg 95 201 125;
#X obj 75 270 list prepend 13;
#X obj 330 278 list append 13;
#X obj 392 333 list append 123 13;
#X obj 254 617 r INDENT_TABS;
#X obj 179 657 list append;
#X obj 215 728 s INDENT_TABS;
#X obj 178 690 list split 2;
#X obj 866 561 list fromsymbol;
#X listbox 866 586 20 0 0 0 - - - 0;
#X msg 862 497 symbol \ \ ;
#X obj 288 331 r INDENT_TABS;
#X obj 213 371 list append;
#X obj 213 394 s INDENT_TABS;
#X msg 214 337 32 32;
#X obj 99 239 list prepend;
#X obj 153 162 r INDENT_TABS;
#X obj 255 252 list prepend;
#X obj 338 226 r INDENT_TABS;
#X obj 381 309 list append;
#X obj 462 268 r INDENT_TABS;
#X obj 75 36 v PREPEND_COMMA;
#X obj 62 639 v PREPEND_COMMA;
#X obj 83 542 t b b b;
#X obj 662 173 select 0 1;
#X obj 194 480 v PREPEND_COMMA;
#X obj 190 261 t b b b;
#X msg 192 452 0;
#X msg 94 595 1;
#X connect 0 0 41 0;
#X connect 5 0 9 0;
#X connect 6 0 5 0;
#X connect 7 0 6 0;
#X connect 8 0 37 0;
#X connect 9 0 10 0;
#X connect 9 1 12 0;
#X connect 10 0 8 1;
#X connect 11 0 8 1;
#X connect 12 0 11 0;
#X connect 13 0 43 0;
#X connect 13 1 20 0;
#X connect 13 2 46 0;
#X connect 15 0 16 1;
#X connect 16 0 2 0;
#X connect 18 0 13 0;
#X connect 18 1 8 0;
#X connect 18 2 44 0;
#X connect 20 0 35 0;
#X connect 21 0 4 0;
#X connect 22 0 39 0;
#X connect 23 0 16 0;
#X connect 24 0 25 1;
#X connect 25 0 27 0;
#X connect 27 1 26 0;
#X connect 28 0 29 0;
#X connect 30 0 28 0;
#X connect 31 0 32 1;
#X connect 32 0 33 0;
#X connect 34 0 32 0;
#X connect 35 0 21 0;
#X connect 36 0 35 1;
#X connect 37 0 22 0;
#X connect 38 0 37 1;
#X connect 39 0 23 0;
#X connect 40 0 39 1;
#X connect 41 0 18 0;
#X connect 43 0 1 0;
#X connect 43 1 48 0;
#X connect 43 2 25 0;
#X connect 44 0 16 1;
#X connect 44 1 15 0;
#X connect 46 0 3 0;
#X connect 46 1 47 0;
#X connect 46 2 34 0;
#X connect 47 0 45 0;
#X connect 48 0 42 0;
