#N canvas 169 507 450 300 12;
#X msg 124 155 set \$1;
#X obj 124 180 s \$2;
#X obj 250 179 s toOSC;
#X obj 251 149 oscformat \$1;
#X obj 252 19 r \$1;
#X obj 252 121 spigot 1;
#X obj 302 91 v NOT_FROM_OSC;
#X obj 251 49 t a a b;
#X obj 24 88 r \$1-\$2;
#X obj 24 111 t b s;
#X obj 24 158 s;
#X msg 24 133 0;
#X connect 0 0 1 0;
#X connect 3 0 2 0;
#X connect 4 0 7 0;
#X connect 5 0 3 0;
#X connect 6 0 5 1;
#X connect 7 0 0 0;
#X connect 7 1 5 0;
#X connect 7 2 6 0;
#X connect 8 0 9 0;
#X connect 9 0 11 0;
#X connect 9 1 10 1;
#X connect 11 0 10 0;
