#N canvas 248 187 514 409 12;
#X msg 124 155 set \$1;
#X obj 124 180 s \$2;
#X obj 250 179 s toOSC;
#X obj 251 149 oscformat \$1;
#X obj 175 13 r \$1;
#X obj 252 121 spigot 1;
#X obj 302 91 v NOT_FROM_OSC;
#X obj 24 88 r \$1-\$2;
#X obj 24 111 t b s;
#X obj 24 158 s;
#X msg 24 133 0;
#X obj 367 253 list append \$3 \$4 \$5;
#X msg 266 293 color \$1 \$2 \$3;
#X obj 268 321 s \$2;
#X obj 61 234 list append \$3 \$4 \$5;
#X obj 61 259 route 0 1;
#X msg 178 365 color \$2 \$2 \$3;
#X obj 56 312 list;
#X obj 134 312 list;
#X obj 391 38 r PDOB_EXPORT;
#X obj 417 96 savestate;
#X obj 373 193 spigot 1;
#X msg 461 127 0;
#X obj 251 49 t a a b b;
#X msg 52 364 color \$1 \$2 \$3;
#X connect 0 0 1 0;
#X connect 3 0 2 0;
#X connect 4 0 14 0;
#X connect 4 0 23 0;
#X connect 5 0 3 0;
#X connect 6 0 5 1;
#X connect 7 0 8 0;
#X connect 8 0 10 0;
#X connect 8 1 9 1;
#X connect 10 0 9 0;
#X connect 11 0 12 0;
#X connect 12 0 13 0;
#X connect 14 0 15 0;
#X connect 15 0 17 0;
#X connect 15 1 18 0;
#X connect 16 0 13 0;
#X connect 17 0 24 0;
#X connect 18 0 16 0;
#X connect 19 0 21 0;
#X connect 20 1 22 0;
#X connect 21 0 11 0;
#X connect 22 0 21 1;
#X connect 23 0 0 0;
#X connect 23 1 5 0;
#X connect 23 2 6 0;
#X connect 24 0 13 0;
