#N canvas 0 0 1920 1021 12;
#X obj 107 911 s toOSC;
#X obj 146 60 unpack f f;
#X obj 146 127 * 10;
#X obj 146 154 int;
#X msg 207 37 0 1;
#X obj 147 81 t f b;
#X obj 176 289 timer;
#X obj 192 180 bng 15 250 50 0 empty empty empty 17 7 0 10 #fcfcfc
#000000 #000000;
#X obj 175 243 t b b f;
#X obj 176 314 > 100;
#X obj 213 363 pack f f f;
#X obj 213 388 route 1 0;
#X msg 201 456 \$2 \$1;
#X obj 199 476 t b l;
#X obj 616 501 list append;
#X obj 616 526 unpack f f;
#X obj 464 498 unpack f f;
#X obj 459 571 -;
#X obj 465 423 t l l b, f 33;
#X obj 462 606 moses 0;
#X obj 415 698 abs;
#X obj 388 794 until;
#X obj 449 637 t f b;
#X obj 507 638 t f b;
#X obj 388 819 f;
#X obj 429 818 + 1;
#X msg 487 727 -1;
#X msg 524 730 1;
#X obj 429 887 f;
#X obj 382 913 swap;
#X obj 380 849 t f b;
#X obj 535 574 -;
#X obj 473 889 +;
#X obj 538 778 pack f f;
#X msg 540 809 \$2 \$1;
#X obj 540 834 /;
#X obj 368 744 t b f f;
#X obj 203 412 t l l;
#X text 492 368 interpolation si balayage curseur trop rapide;
#X obj 51 9 r \$2;
#X obj 40 35 route refresh;
#X obj 201 523 tabwrite \$1;
#X obj 177 104 array size \$1;
#X obj 114 817 array get \$1;
#X obj 116 877 oscformat \$1;
#X obj 380 953 tabwrite \$1;
#X obj 40 60 t b;
#X connect 1 0 5 0;
#X connect 1 1 10 2;
#X connect 2 0 3 0;
#X connect 3 0 8 0;
#X connect 4 0 1 0;
#X connect 5 0 2 0;
#X connect 5 1 42 0;
#X connect 6 0 9 0;
#X connect 7 0 8 0;
#X connect 8 0 6 0;
#X connect 8 1 6 1;
#X connect 8 2 10 1;
#X connect 9 0 10 0;
#X connect 10 0 11 0;
#X connect 11 0 37 0;
#X connect 11 1 18 0;
#X connect 12 0 13 0;
#X connect 13 0 43 0;
#X connect 13 1 41 0;
#X connect 14 0 15 0;
#X connect 15 0 17 1;
#X connect 15 0 24 1;
#X connect 15 1 28 1;
#X connect 15 1 31 1;
#X connect 16 0 17 0;
#X connect 16 1 31 0;
#X connect 17 0 19 0;
#X connect 18 0 16 0;
#X connect 18 1 14 1;
#X connect 18 2 14 0;
#X connect 19 0 22 0;
#X connect 19 1 23 0;
#X connect 20 0 36 0;
#X connect 21 0 24 0;
#X connect 22 0 20 0;
#X connect 22 1 26 0;
#X connect 23 0 20 0;
#X connect 23 1 27 0;
#X connect 24 0 25 0;
#X connect 24 0 30 0;
#X connect 25 0 24 1;
#X connect 26 0 25 1;
#X connect 27 0 25 1;
#X connect 28 0 29 1;
#X connect 28 0 32 0;
#X connect 29 0 45 0;
#X connect 29 1 45 1;
#X connect 30 0 29 0;
#X connect 30 1 28 0;
#X connect 31 0 33 1;
#X connect 32 0 28 1;
#X connect 33 0 34 0;
#X connect 34 0 35 0;
#X connect 35 0 32 1;
#X connect 36 0 43 0;
#X connect 36 1 21 0;
#X connect 36 2 33 0;
#X connect 37 0 12 0;
#X connect 37 1 14 1;
#X connect 39 0 40 0;
#X connect 40 0 46 0;
#X connect 40 1 1 0;
#X connect 42 0 2 1;
#X connect 43 0 44 0;
#X connect 44 0 0 0;
#X connect 46 0 43 0;
