#N canvas 771 103 788 435 12;
#X obj 414 346 s toOSC;
#X obj 24 88 r \$1-\$2;
#X obj 24 111 t b s;
#X obj 24 158 s;
#X msg 24 133 0;
#X text 18 28 tell [stage] that listener already exists, f 16;
#X obj 262 156 route float set label;
#X obj 548 286 oscformat \$1-LABEL;
#X obj 536 242 list;
#X obj 347 63 r _FROM_OSC_\$1;
#X obj 363 123 s \$2;
#X obj 261 40 r \$2;
#X obj 283 234 spigot 1;
#X obj 344 90 t b a b;
#X obj 184 109 r \$1;
#X msg 309 196 1;
#X msg 385 206 0;
#X obj 411 284 oscformat \$1;
#X connect 1 0 2 0;
#X connect 2 0 4 0;
#X connect 2 1 3 1;
#X connect 4 0 3 0;
#X connect 6 0 12 0;
#X connect 6 1 17 0;
#X connect 6 2 8 0;
#X connect 7 0 0 0;
#X connect 8 0 7 0;
#X connect 9 0 13 0;
#X connect 11 0 6 0;
#X connect 12 0 17 0;
#X connect 13 0 15 0;
#X connect 13 1 10 0;
#X connect 13 2 16 0;
#X connect 14 0 6 0;
#X connect 15 0 12 1;
#X connect 16 0 12 1;
#X connect 17 0 0 0;
