#N canvas 793 292 958 1016 12;
#X obj 575 396 s toOSC;
#X obj 570 342 oscformat \$1;
#X obj 350 160 spigot 1;
#X obj 24 88 r \$1-\$2;
#X obj 24 111 t b s;
#X obj 24 158 s;
#X msg 24 133 0;
#X msg 354 292 1;
#X obj 568 271 delay \$3;
#X msg 568 296 0;
#X obj 588 104 select bang;
#X obj 348 27 r \$1;
#X obj 594 156 t b b;
#X obj 767 267 s \$2;
#X obj 352 226 t b b;
#X text 165 389 1a refaire;
#X obj 606 56 r _FROM_OSC_\$1-BNG;
#X obj 696 212 t b b b;
#X msg 402 121 1;
#X msg 447 123 0;
#X connect 1 0 0 0;
#X connect 2 0 14 0;
#X connect 3 0 4 0;
#X connect 4 0 6 0;
#X connect 4 1 5 1;
#X connect 6 0 5 0;
#X connect 7 0 1 0;
#X connect 8 0 9 0;
#X connect 9 0 1 0;
#X connect 10 0 12 0;
#X connect 11 0 2 0;
#X connect 12 0 8 0;
#X connect 12 1 17 0;
#X connect 14 0 7 0;
#X connect 14 1 8 0;
#X connect 16 0 10 0;
#X connect 17 0 18 0;
#X connect 17 1 13 0;
#X connect 17 2 19 0;
#X connect 18 0 2 1;
#X connect 19 0 2 1;
