#N canvas 0 0 1920 1021 12;
#X obj 252 339 s toOSC;
#X obj 253 309 oscformat \$1;
#X obj 252 19 r \$1;
#X obj 252 171 spigot 1;
#X obj 302 141 v NOT_FROM_OSC;
#X obj 24 88 r \$1-\$2;
#X obj 24 111 t b s;
#X obj 24 158 s;
#X msg 24 133 0;
#X msg 248 240 1;
#X obj 291 240 delay \$3;
#X msg 291 265 0;
#X obj 251 99 t b b;
#X obj 251 59 route bang;
#X obj 326 87 select 1;
#X obj 382 203 s \$2;
#X connect 1 0 0 0;
#X connect 2 0 13 0;
#X connect 3 0 9 0;
#X connect 3 0 10 0;
#X connect 4 0 3 1;
#X connect 5 0 6 0;
#X connect 6 0 8 0;
#X connect 6 1 7 1;
#X connect 8 0 7 0;
#X connect 9 0 1 0;
#X connect 10 0 11 0;
#X connect 11 0 1 0;
#X connect 12 0 3 0;
#X connect 12 1 4 0;
#X connect 13 0 12 0;
#X connect 13 1 14 0;
#X connect 14 0 10 0;
#X connect 14 0 15 0;
