#N canvas 0 0 1920 1021 12;
#X obj 40 13 inlet;
#X obj 40 483 outlet;
#X obj 165 354 list fromsymbol;
#X obj 161 230 list append \$1;
#X msg 362 379 44 13;
#X obj 193 471 list prepend;
#X text 155 76 first item ?;
#X obj 181 427 list prepend;
#X obj 248 396 r INDENT_TABS;
#X obj 161 278 list append \$2;
#X msg 162 325 symbol "\$1":\\\ \$2;
#X obj 344 33 inlet;
#X obj 40 77 v PREPEND_COMMA;
#X obj 60 390 v PREPEND_COMMA;
#X obj 39 110 t b b b f;
#X obj 324 315 select 0 1;
#X msg 60 339 1;
#X obj 345 56 list;
#X obj 326 87 t l l;
#X obj 346 118 list length;
#X obj 302 141 list prepend;
#X obj 290 174 route 1 2;
#X obj 305 205 list split 1;
#X obj 42 43 t b s;
#X obj 138 47 s \$0-target;
#X obj 39 454 symbol;
#X obj 76 427 r \$0-target;
#X obj 304 472 r \$0-target;
#X obj 194 507 s;
#X connect 0 0 23 0;
#X connect 2 0 7 0;
#X connect 3 0 9 0;
#X connect 4 0 5 1;
#X connect 5 0 28 0;
#X connect 7 0 5 0;
#X connect 8 0 7 1;
#X connect 9 0 10 0;
#X connect 10 0 2 0;
#X connect 11 0 17 0;
#X connect 12 0 14 0;
#X connect 14 0 25 0;
#X connect 14 1 16 0;
#X connect 14 2 3 0;
#X connect 14 3 15 0;
#X connect 15 0 5 1;
#X connect 15 1 4 0;
#X connect 16 0 13 0;
#X connect 17 0 18 0;
#X connect 18 0 20 0;
#X connect 18 1 19 0;
#X connect 19 0 20 1;
#X connect 20 0 21 0;
#X connect 21 0 9 1;
#X connect 21 1 22 0;
#X connect 22 0 3 1;
#X connect 22 1 9 1;
#X connect 23 0 12 0;
#X connect 23 1 24 0;
#X connect 25 0 1 0;
#X connect 26 0 25 1;
#X connect 27 0 28 1;
