#N canvas 704 308 1149 499 12;
#X obj 41 14 inlet;
#X obj 40 511 outlet;
#X obj 152 252 list fromsymbol;
#X obj 154 197 list append \$1;
#X msg 404 503 44 13;
#X obj 193 501 list prepend;
#X text 155 106 first item ?;
#X obj 181 457 list prepend;
#X obj 248 426 r INDENT_TABS;
#X obj 342 18 inlet;
#X obj 40 107 v PREPEND_COMMA;
#X obj 60 420 v PREPEND_COMMA;
#X obj 39 140 t b b b f;
#X obj 384 469 select 0 1;
#X msg 60 369 1;
#X msg 149 223 symbol "\$1":\\\ ;
#X obj 178 352 list append;
#X obj 650 138 loadbang;
#X obj 650 163 list append \$2;
#X obj 641 303 file handle;
#X obj 604 119 bng 15 250 50 0 empty empty empty 17 7 0 10 #fcfcfc
#000000 #000000;
#X obj 723 218 pdcontrol;
#X msg 719 194 dir;
#X obj 651 192 t s b;
#X obj 647 253 list append;
#X msg 644 276 open \$2/\$1 r \, 4096 \, close;
#X obj 176 310 list append;
#X obj 178 388 list append;
#X obj 342 161 route prepend set append file;
#X obj 42 43 t b s;
#X obj 138 47 s \$0-target;
#X obj 39 484 symbol;
#X obj 76 457 r \$0-target;
#X obj 229 530 r \$0-target;
#X obj 194 557 s;
#X connect 0 0 29 0;
#X connect 2 0 26 0;
#X connect 3 0 15 0;
#X connect 4 0 5 1;
#X connect 5 0 34 0;
#X connect 7 0 5 0;
#X connect 8 0 7 1;
#X connect 9 0 28 0;
#X connect 10 0 12 0;
#X connect 12 0 31 0;
#X connect 12 1 14 0;
#X connect 12 2 3 0;
#X connect 12 3 13 0;
#X connect 13 0 5 1;
#X connect 13 1 4 0;
#X connect 14 0 11 0;
#X connect 15 0 2 0;
#X connect 16 0 27 0;
#X connect 17 0 18 0;
#X connect 18 0 23 0;
#X connect 19 0 16 1;
#X connect 20 0 18 0;
#X connect 21 0 24 1;
#X connect 22 0 21 0;
#X connect 23 0 24 0;
#X connect 23 1 22 0;
#X connect 24 0 25 0;
#X connect 25 0 19 0;
#X connect 26 0 16 0;
#X connect 27 0 7 0;
#X connect 28 0 26 1;
#X connect 28 1 16 1;
#X connect 28 2 27 1;
#X connect 28 3 19 0;
#X connect 29 0 10 0;
#X connect 29 1 30 0;
#X connect 31 0 1 0;
#X connect 32 0 31 1;
#X connect 33 0 34 1;
